<svg width="56" height="32" viewBox="0 0 56 32" fill="none" xmlns="http://www.w3.org/2000/svg">
<path fill-rule="evenodd" clip-rule="evenodd" d="M10.191 10L5 21.826H11.215L11.985 19.941H13.746L14.517 21.827H21.357V20.387L21.967 21.827H25.507L26.116 20.357V21.827H40.343L42.073 19.99L43.693 21.827L51 21.842L45.792 15.946L51 10H43.806L42.122 11.803L40.553 10H25.076L23.746 13.053L22.387 10H16.186V11.39L15.496 10H10.193H10.191ZM11.394 11.68H14.424L17.867 19.699V11.679H21.186L23.846 17.429L26.296 11.679H29.6V20.166H27.59L27.574 13.516L24.644 20.166H22.847L19.902 13.516V20.166H15.768L14.985 18.263H10.75L9.968 20.164H7.754L11.394 11.679V11.68ZM39.607 11.68H31.437V20.16H39.48L42.073 17.35L44.572 20.16H47.184L43.387 15.945L47.184 11.679H44.685L42.105 14.458L39.607 11.679V11.68ZM12.867 13.115L11.473 16.505H14.261L12.868 13.115H12.867ZM33.454 14.985V13.435H38.552L40.776 15.912L38.453 18.404H33.454V16.712H37.911V14.986H33.454V14.985Z" fill="#016FD0"/>
</svg>
