<svg width="24" height="24" viewBox="0 0 24 24" fill="none" xmlns="http://www.w3.org/2000/svg">
<path d="M6.14289 12.5714C5.8273 12.5714 5.57146 12.3156 5.57146 12C5.57146 11.6844 5.8273 11.4286 6.14289 11.4286" stroke="#0E1422" stroke-width="1.8" stroke-linecap="round" stroke-linejoin="round"/>
<path d="M6.14289 12.5714C6.45847 12.5714 6.71431 12.3156 6.71431 12C6.71431 11.6844 6.45847 11.4286 6.14289 11.4286" stroke="#0E1422" stroke-width="1.8" stroke-linecap="round" stroke-linejoin="round"/>
<path d="M12 12.5714C11.6844 12.5714 11.4286 12.3156 11.4286 12C11.4286 11.6844 11.6844 11.4286 12 11.4286" stroke="#0E1422" stroke-width="1.8" stroke-linecap="round" stroke-linejoin="round"/>
<path d="M12 12.5714C12.3156 12.5714 12.5715 12.3156 12.5715 12C12.5715 11.6844 12.3156 11.4286 12 11.4286" stroke="#0E1422" stroke-width="1.8" stroke-linecap="round" stroke-linejoin="round"/>
<path d="M17.8571 12.5714C17.5415 12.5714 17.2857 12.3156 17.2857 12C17.2857 11.6844 17.5415 11.4286 17.8571 11.4286" stroke="#0E1422" stroke-width="1.8" stroke-linecap="round" stroke-linejoin="round"/>
<path d="M17.8571 12.5714C18.1728 12.5714 18.4285 12.3156 18.4285 12C18.4285 11.6844 18.1728 11.4286 17.8571 11.4286" stroke="#0E1422" stroke-width="1.8" stroke-linecap="round" stroke-linejoin="round"/>
</svg>
